[img]http://img594.imageshack.us/img594/7481/retreat.jpg[/img]
[code]
iNFO

Title: Retreat 2011 DvDRiP XviD - VISUALiSE
Format: XViD
Language: English
Subtitles: No    

iMDB: http://www.imdb.com/title/tt1410051/

Plot:
Kate and Martin escape from personal tragedy to an Island Retreat. 
Cut off from the outside world, their attempts to recover are shattered 
when a Man is washed ashore, with news of airborne killer disease that 
is sweeping through Europe. 

Sources:
Video:                          - thanks   
Audio:                         - thanks   

Release Notes:
Straight forward rip on this not much special so hope you enjoy.

Info:

Video
ID                               : 0
Format                           : MPEG-4 Visual
Format profile                   : Advanced Simple@L5
Format settings, BVOP            : 2
Format settings, QPel            : No
Format settings, GMC             : No warppoints
Format settings, Matrix          : Default (H.263)
Codec ID                         : XVID
Codec ID/Hint                    : XviD
Duration                         : 1h 26mn
Bit rate                         : 1 498 Kbps
Width                            : 718 pixels
Height                           : 304 pixels
Display aspect ratio             : 2.35:1
Frame rate                       : 23.976 fps
Color space                      : YUV
Chroma subsampling               : 4:2:0
Bit depth                        : 8 bits
Scan type                        : Progressive
Compression mode                 : Lossy
Bits/(Pixel*Frame)               : 0.286
Stream size                      : 924 MiB (91%)
Writing library                  : XviD 63

Audio
ID                               : 1
Format                           : MPEG Audio
Format version                   : Version 1
Format profile                   : Layer 3
Codec ID                         : 55
Codec ID/Hint                    : MP3
Duration                         : 1h 26mn
Bit rate mode                    : Constant
Bit rate                         : 128 Kbps
Channel(s)                       : 2 channels
Sampling rate                    : 48.0 KHz
Compression mode                 : Lossy
Stream size                      : 79.0 MiB (8%)
Alignment                        : Split accross interleaves
Interleave, duration             : 24 ms (0.58 video frame)
[/code]
Screens:
[img]http://img27.imageshack.us/img27/4755/74520977.png[/img]
[img]http://img845.imageshack.us/img845/898/60086807.png[/img]
[img]http://img690.imageshack.us/img690/5797/31718246.png[/img]
[img]http://img5.imageshack.us/img5/2097/97278099.png[/img]
